
<svg width="42px" height="32px" viewBox="264 60 42 32" version="1.1" xmlns="http://www.w3.org/2000/svg" xmlns:xlink="http://www.w3.org/1999/xlink">
    <!-- Generator: Sketch 42 (36781) - http://www.bohemiancoding.com/sketch -->
    <desc>Created with Sketch.</desc>
    <defs></defs>
    <g id="cloudy" stroke="none" stroke-width="1" fill="none" fill-rule="evenodd" transform="translate(265.000000, 61.000000)">
        <path d="M6.77060548,25.083607 C3.00576254,24.9349843 0,21.8877943 0,18.1505102 C0,15.5806355 1.42123645,13.337063 3.53322799,12.1378509 C3.65684749,8.4122994 6.76817047,5.42942177 10.5882353,5.42942177 C11.3700346,5.42942177 12.1221489,5.55435689 12.8250433,5.78502448 C14.3947145,2.82476315 17.5454715,0.803571429 21.1764706,0.803571429 C26.3744447,0.803571429 30.5882353,4.94569891 30.5882353,10.0552721 C30.5882353,10.1226611 30.5875023,10.1898818 30.5860438,10.256927 C31.1532048,10.1250577 31.7447823,10.0552721 32.3529412,10.0552721 C36.5762951,10.0552721 40,13.4207507 40,17.5722789 C40,21.7238071 36.5762951,25.0892857 32.3529412,25.0892857 C32.2523827,25.0892857 32.1522776,25.0873778 32.0526612,25.0835967 C32.0176246,25.087357 31.9820541,25.0892857 31.9460477,25.0892857 L6.87748171,25.0892857 C6.84137489,25.0892857 6.8057172,25.0873607 6.77060548,25.083607 Z" id="Cloud-Copy-3" stroke="#EEEEF1" stroke-width="2"></path>
        <path d="M13.4117,29.3370993 C13.3628831,29.3385534 13.3138815,29.3392857 13.2647059,29.3392857 C10.6332315,29.3392857 8.5,27.2423337 8.5,24.6556122 C8.5,22.9209468 9.4593346,21.4065354 10.8849289,20.5970672 C10.9683721,18.08232 13.0685151,16.0688776 15.6470588,16.0688776 C16.1747734,16.0688776 16.6824505,16.1532088 17.1569043,16.3089094 C18.2164323,14.310733 20.3431933,12.9464286 22.7941176,12.9464286 C26.3027502,12.9464286 29.1470588,15.7423646 29.1470588,19.1913265 C29.1470588,19.2368141 29.1465641,19.2821881 29.1455796,19.3274436 C29.5284133,19.2384318 29.9277281,19.1913265 30.3382353,19.1913265 C33.1889992,19.1913265 35.5,21.4630246 35.5,24.2653061 C35.5,27.0675877 33.1889992,29.3392857 30.3382353,29.3392857 C30.195033,29.3392857 30.0531928,29.3335534 29.912939,29.3223096 C29.8527609,29.3334573 29.7907062,29.3392857 29.7272876,29.3392857 L13.4785947,29.3392857 C13.4561171,29.3392857 13.4338112,29.3385492 13.4117,29.3370993 Z" id="Cloud-Copy-4" stroke="#EEEEF1" stroke-width="2" fill="#EEEEF1"></path>
    </g>
</svg>
