
<svg width="29px" height="26px" viewBox="426 69 29 26" version="1.1" xmlns="http://www.w3.org/2000/svg" xmlns:xlink="http://www.w3.org/1999/xlink">
    <!-- Generator: Sketch 42 (36781) - http://www.bohemiancoding.com/sketch -->
    <desc>Created with Sketch.</desc>
    <defs></defs>
    <g id="Fahrenheit" stroke="none" stroke-width="1" fill="none" fill-rule="evenodd" transform="translate(426.000000, 69.000000)">
        <path d="M5,11 C2.23857625,11 0,8.76142375 0,6 C0,3.23857625 2.23857625,1 5,1 C7.76142375,1 10,3.23857625 10,6 C10,8.76142375 7.76142375,11 5,11 Z M5,9 C6.65685425,9 8,7.65685425 8,6 C8,4.34314575 6.65685425,3 5,3 C3.34314575,3 2,4.34314575 2,6 C2,7.65685425 3.34314575,9 5,9 Z" id="Oval-5" fill="#EEEEF1" fill-rule="nonzero"></path>
        <path d="M16.516,4.112 L16.516,11.564 L25.372,11.564 C25.8760025,11.564 26.2899984,11.7199984 26.614,12.032 C26.9380016,12.3440016 27.1,12.7519975 27.1,13.256 C27.1,13.6880022 26.9380016,14.0599984 26.614,14.372 C26.2899984,14.6840016 25.8760025,14.84 25.372,14.84 L16.516,14.84 L16.516,24.272 C16.516,24.7520024 16.3420017,25.1599983 15.994,25.496 C15.6459983,25.8320017 15.2320024,26 14.752,26 C14.2479975,26 13.8280017,25.8320017 13.492,25.496 C13.1559983,25.1599983 12.988,24.7520024 12.988,24.272 L12.988,2.528 C12.988,2.0479976 13.1559983,1.64000168 13.492,1.304 C13.8280017,0.96799832 14.2359976,0.8 14.716,0.8 L26.992,0.8 C27.4960025,0.8 27.9099984,0.95599844 28.234,1.268 C28.5580016,1.58000156 28.72,1.98799748 28.72,2.492 C28.72,2.92400216 28.5520017,3.30199838 28.216,3.626 C27.8799983,3.95000162 27.4720024,4.112 26.992,4.112 L16.516,4.112 Z" id="F" fill="#EEEEF1"></path>
    </g>
</svg>
