
<svg width="43px" height="33px" viewBox="179 129 43 33" version="1.1" xmlns="http://www.w3.org/2000/svg" xmlns:xlink="http://www.w3.org/1999/xlink">
    <!-- Generator: Sketch 42 (36781) - http://www.bohemiancoding.com/sketch -->
    <desc>Created with Sketch.</desc>
    <defs></defs>
    <g id="partly-cloud-day" stroke="none" stroke-width="1" fill="none" fill-rule="evenodd" transform="translate(180.000000, 130.000000)">
        <g id="Sun-icon-Copy" stroke="#EEEEF1" stroke-width="2">
            <path d="M13,0 L13,2.88461538" id="Line" stroke-linecap="round"></path>
            <path d="M2.92444446,20.5348451 L5.13418805,18.6806501" id="Line" stroke-linecap="round"></path>
            <path d="M3.66116524,3.66116524 L5.70089633,5.70089633" id="Line" stroke-linecap="round"></path>
            <path d="M21.3388348,3.66116524 L19.2991037,5.70089633" id="Line" stroke-linecap="round"></path>
            <path d="M0,13 L2.88461538,13" id="Line" stroke-linecap="round"></path>
            <path d="M18.2356706,11.8740879 C17.9236827,8.98223136 15.47477,6.73076923 12.5,6.73076923 C9.31374183,6.73076923 6.73076923,9.31374183 6.73076923,12.5 C6.73076923,14.5273012 7.77643866,16.3103731 9.35784998,17.3392884 C10.1316931,14.8545516 12.4835329,13.047619 15.2647059,13.047619 C15.9487803,13.047619 16.6068803,13.1569373 17.2219129,13.3587714 C17.5041852,12.8264308 17.8448916,12.3287964 18.2356706,11.8740879 Z" id="Combined-Shape"></path>
        </g>
        <path d="M12.1311473,30.24984 C8.74083919,30.2258892 6,27.5168655 6,24.1785714 C6,21.9299311 7.24358189,19.9668051 9.09157449,18.9174945 C9.19974155,15.657637 11.9221492,13.047619 15.2647059,13.047619 C15.9487803,13.047619 16.6068803,13.1569373 17.2219129,13.3587714 C18.5953751,10.7685428 21.3522876,9 24.5294118,9 C29.0776391,9 32.7647059,12.6243615 32.7647059,17.0952381 C32.7647059,17.1542035 32.7640645,17.2130216 32.7627883,17.2716861 C33.2590542,17.1563005 33.7766846,17.0952381 34.3088235,17.0952381 C38.0042583,17.0952381 41,20.0400319 41,23.672619 C41,27.3052062 38.0042583,30.25 34.3088235,30.25 C34.1904778,30.25 34.0728497,30.2469798 33.9560146,30.2410137 C33.9119233,30.2469397 33.8669526,30.25 33.8213037,30.25 L12.1492845,30.25 C12.143226,30.25 12.1371802,30.2499465 12.1311473,30.24984 Z" id="Cloud-Copy-6" stroke="#EEEEF1" stroke-width="2"></path>
    </g>
</svg>
