
<svg width="38px" height="35px" viewBox="341 128 38 35" version="1.1" xmlns="http://www.w3.org/2000/svg" xmlns:xlink="http://www.w3.org/1999/xlink">
    <!-- Generator: Sketch 42 (36781) - http://www.bohemiancoding.com/sketch -->
    <desc>Created with Sketch.</desc>
    <defs></defs>
    <g id="partly-cloudy-night" stroke="none" stroke-width="1" fill="none" fill-rule="evenodd" transform="translate(342.000000, 128.000000)">
        <path d="M6.50685904,33.24984 C3.11655096,33.2258892 0.375711769,30.5168655 0.375711769,27.1785714 C0.375711769,24.9299311 1.61929366,22.9668051 3.46728626,21.9174945 C3.57545332,18.657637 6.29786093,16.047619 9.64041765,16.047619 C10.3244921,16.047619 10.9825921,16.1569373 11.5976247,16.3587714 C12.9710869,13.7685428 15.7279993,12 18.9051235,12 C23.4533509,12 27.1404177,15.6243615 27.1404177,20.0952381 C27.1404177,20.1542035 27.1397763,20.2130216 27.1385001,20.2716861 C27.634766,20.1563005 28.1523963,20.0952381 28.6845353,20.0952381 C32.37997,20.0952381 35.3757118,23.0400319 35.3757118,26.672619 C35.3757118,30.3052062 32.37997,33.25 28.6845353,33.25 C28.5661896,33.25 28.4485614,33.2469798 28.3317263,33.2410137 C28.2876351,33.2469397 28.2426643,33.25 28.1970155,33.25 L6.52499627,33.25 C6.51893782,33.25 6.51289192,33.2499465 6.50685904,33.24984 L6.50685904,33.24984 Z" id="Cloud-Copy-8" stroke="#EEEEF1" stroke-width="2"></path>
        <path d="M30.0938476,20.3318801 C32.2470885,19.6452345 34.0936159,18.2715365 35.3757118,16.4685039 C34.5167707,16.6860499 33.6171991,16.8016395 32.6906301,16.8016395 C26.6695331,16.8016395 21.7884695,11.920576 21.7884695,5.89947897 C21.7884695,4.12031406 22.2146521,2.44068942 22.970498,0.957124055 C19.2432217,2.51595849 16.6242882,6.19706809 16.6242882,10.4898624 C16.6242882,11.0677765 16.671753,11.6346047 16.7629967,12.1866613 C17.332033,12.0644143 17.9230699,12 18.5294118,12 C23.0776391,12 26.7647059,15.6243615 26.7647059,20.0952381 C26.7647059,20.1542035 26.7640645,20.2130216 26.7627883,20.2716861 C27.2590542,20.1563005 27.7766846,20.0952381 28.3088235,20.0952381 C28.9269931,20.0952381 29.5255836,20.1776403 30.0938476,20.3318801 L30.0938476,20.3318801 Z" id="Combined-Shape" stroke="#EEEEF1" stroke-linecap="round" stroke-linejoin="round" fill="#EEEEF1"></path>
    </g>
</svg>
