
<svg width="42px" height="39px" viewBox="180 56 42 39" version="1.1" xmlns="http://www.w3.org/2000/svg" xmlns:xlink="http://www.w3.org/1999/xlink">
    <!-- Generator: Sketch 42 (36781) - http://www.bohemiancoding.com/sketch -->
    <desc>Created with Sketch.</desc>
    <defs></defs>
    <g id="rain" stroke="none" stroke-width="1" fill="none" fill-rule="evenodd" transform="translate(181.000000, 57.000000)">
        <path d="M6.77060548,24.2800355 C3.00576254,24.1314129 0,21.0842229 0,17.3469388 C0,14.7770641 1.42123645,12.5334915 3.53322799,11.3342794 C3.65684749,7.60872797 6.76817047,4.62585034 10.5882353,4.62585034 C11.3700346,4.62585034 12.1221489,4.75078546 12.8250433,4.98145306 C14.3947145,2.02119172 17.5454715,0 21.1764706,0 C26.3744447,0 30.5882353,4.14212748 30.5882353,9.25170068 C30.5882353,9.31908968 30.5875023,9.38631039 30.5860438,9.45335554 C31.1532048,9.32148629 31.7447823,9.25170068 32.3529412,9.25170068 C36.5762951,9.25170068 40,12.6171793 40,16.7687075 C40,20.9202357 36.5762951,24.2857143 32.3529412,24.2857143 C32.2523827,24.2857143 32.1522776,24.2838063 32.0526612,24.2800252 C32.0176246,24.2837856 31.9820541,24.2857143 31.9460477,24.2857143 L6.87748171,24.2857143 C6.84137489,24.2857143 6.8057172,24.2837892 6.77060548,24.2800355 Z" id="Cloud-Copy-2" stroke="#EEEEF1" stroke-width="2"></path>
        <path d="M11,28 C11,28 10.8473615,28.4070359 10.6611679,28.9035524 L9.05477615,33.1872636" id="Line" stroke="#EEEEF1" stroke-width="2" stroke-linecap="round"></path>
        <path d="M17,28 C17,28 16.764595,28.6277466 16.470566,29.4118241 L14,36" id="Line-Copy" stroke="#EEEEF1" stroke-width="2" stroke-linecap="round"></path>
        <path d="M23,28 C23,28 22.8473615,28.4070359 22.6611679,28.9035524 L21.0547761,33.1872636" id="Line-Copy-2" stroke="#EEEEF1" stroke-width="2" stroke-linecap="round"></path>
        <path d="M29,28 C29,28 28.764595,28.6277466 28.470566,29.4118241 L26,36" id="Line-Copy-3" stroke="#EEEEF1" stroke-width="2" stroke-linecap="round"></path>
    </g>
</svg>
